<svg xmlns="http://www.w3.org/2000/svg" width="28" height="28" fill="none"><g clip-path="url(#a)"><path fill="#F22BB2" d="M.575 28h9.494a8.15 8.15 0 0 0 8.15-8.15H8.726A8.15 8.15 0 0 0 .576 28Z"/><path fill="#8C30F5" d="M0 8.15v11.987a8.15 8.15 0 0 0 8.15-8.15V0A8.15 8.15 0 0 0 0 8.15Z"/><path fill="#FE9A22" d="M27.425 0H17.93a8.15 8.15 0 0 0-8.15 8.15h9.493A8.15 8.15 0 0 0 27.424 0Z"/><path fill="#2EC5CE" d="M27.425 19.37V7.384a8.15 8.15 0 0 0-8.151 8.15V27.52a8.15 8.15 0 0 0 8.15-8.15Z"/></g><defs><clipPath id="a"><path fill="#fff" d="M0 0h28v28H0z"/></clipPath></defs></svg>